<svg width="898" height="97" viewBox="0 0 898 97" fill="none" xmlns="http://www.w3.org/2000/svg">
<g clip-path="url(#clip0_1623_223)">
<path d="M396.783 61.1069C400.588 61.1069 403.673 57.9729 403.673 54.1069C403.673 50.2409 400.588 47.1069 396.783 47.1069C392.978 47.1069 389.894 50.2409 389.894 54.1069C389.894 57.9729 392.978 61.1069 396.783 61.1069Z" fill="#989898" fill-opacity="0.31"/>
<path d="M396.783 68.4483C417.2 68.4483 433.751 62.0274 433.751 54.1068C433.751 46.1863 417.2 39.7654 396.783 39.7654C376.367 39.7654 359.816 46.1863 359.816 54.1068C359.816 62.0274 376.367 68.4483 396.783 68.4483Z" stroke="#989898" stroke-opacity="0.31" stroke-width="0.760373"/>
<path d="M384.56 61.2777C394.768 79.2428 408.516 90.596 415.267 86.6357C422.018 82.6754 419.215 64.9013 409.007 46.9362C398.799 28.9711 385.051 17.6179 378.3 21.5782C371.549 25.5385 374.351 43.3125 384.56 61.2777Z" stroke="#989898" stroke-opacity="0.31" stroke-width="0.760373"/>
<path d="M384.56 46.9363C374.351 64.9014 371.549 82.6755 378.3 86.6358C385.051 90.5961 398.799 79.2429 409.007 61.2778C419.216 43.3126 422.018 25.5386 415.267 21.5783C408.516 17.618 394.768 28.9712 384.56 46.9363Z" stroke="#989898" stroke-opacity="0.31" stroke-width="0.760373"/>
</g>
<g clip-path="url(#clip1_1623_223)">
<path d="M0 17.4221L5.73244 82.4336L31.4545 91.0076L57.3408 82.4336L63.0733 17.4221H0ZM50.6229 38.4301H20.4331L21.1065 46.5442H49.9494L47.7156 70.9194L31.6352 75.3543V75.4035H31.4545L15.2427 70.9194L14.2572 58.469H22.0921L22.667 64.7271L31.4545 67.1087L40.2749 64.7271L41.2604 54.5105H13.8466L11.7441 30.5952H51.3456L50.6229 38.4301V38.4301Z" fill="#989898" fill-opacity="0.31"/>
</g>
<g clip-path="url(#clip2_1623_223)">
<path d="M114.056 17.6233L119.62 82.6348L144.665 91.2088L169.71 82.6348L175.274 17.6233H114.056ZM163.971 30.7636L163.206 38.5327L144.824 46.6304L144.777 46.6469H162.552L160.512 70.7264L144.856 75.4405L129.105 70.6443L128.085 58.5059H135.881L136.391 64.7968L144.777 66.9814L153.497 64.4519L154.087 54.3339L127.575 54.2518V54.2354L127.543 54.2518L126.969 46.6469L144.84 38.9762L145.877 38.5327H126.284L125.359 30.7636H163.971Z" fill="#989898" fill-opacity="0.31"/>
</g>
<g clip-path="url(#clip3_1623_223)">
<path d="M525.541 70.8825C525.501 70.9644 525.462 71.0299 525.541 70.8825V70.8825ZM558.277 59.0092C555.634 59.0083 553.027 59.6387 550.656 60.8516C549.88 59.2275 549.079 57.8082 548.948 56.7437C548.79 55.5017 548.619 54.7648 548.803 53.2908C548.987 51.8169 549.815 49.7288 549.802 49.5787C549.788 49.4286 549.618 48.678 547.923 48.6643C546.227 48.6507 544.769 49.0055 544.599 49.4695C544.3 50.3175 544.067 51.1893 543.903 52.0762C543.601 53.673 540.514 59.3776 538.766 62.3528C538.188 61.1928 537.702 60.1692 537.597 59.3503C537.439 58.1084 537.268 57.3715 537.452 55.8975C537.636 54.4236 538.464 52.3355 538.451 52.1854C538.438 52.0353 538.267 51.2847 536.573 51.271C534.88 51.2574 533.42 51.6122 533.249 52.0762C533.078 52.5402 532.894 53.632 532.552 54.6829C532.211 55.7338 528.099 65.2324 527.023 67.7026C526.471 68.9582 525.998 69.9681 525.656 70.6505C525.604 70.7597 525.564 70.8279 525.538 70.8825C525.578 70.8143 525.604 70.746 525.604 70.7733C525.315 71.3602 525.144 71.6877 525.144 71.6877V71.7013C524.921 72.1381 524.671 72.5338 524.553 72.5338C524.474 72.5338 524.303 71.3875 524.592 69.818C525.21 66.5153 526.668 61.3838 526.655 61.2064C526.642 61.1109 526.931 60.2238 525.696 59.7461C524.5 59.2958 524.066 60.0464 523.961 60.0464C523.856 60.0464 523.777 60.3193 523.777 60.3193C523.777 60.3193 525.105 54.5328 521.229 54.5328C518.812 54.5328 515.448 57.2896 513.795 59.7871C512.757 60.3739 510.51 61.6431 508.144 62.9942C507.238 63.5128 506.305 64.0451 505.424 64.55C505.359 64.4818 505.306 64.4136 505.24 64.3453C500.537 59.132 491.854 55.4472 492.222 48.446C492.354 45.8939 493.208 39.193 508.92 31.059C521.797 24.3991 532.092 26.2278 533.865 30.2948C536.414 36.095 528.361 46.8902 514.988 48.446C509.891 49.0328 507.211 46.9857 506.541 46.2214C505.845 45.4162 505.74 45.3753 505.477 45.5254C505.043 45.7711 505.319 46.4807 505.477 46.9038C505.871 47.982 507.514 49.8926 510.311 50.8479C512.768 51.6804 518.745 52.1445 525.97 49.2375C534.088 45.9894 540.408 36.9411 538.555 29.3668C536.668 21.6696 524.379 19.1448 512.759 23.4301C505.836 25.9822 498.348 29.9945 492.962 35.2215C486.564 41.4448 485.54 46.8629 485.961 49.1284C487.458 57.1667 498.125 62.4074 502.394 66.2833C502.184 66.4061 501.987 66.5153 501.803 66.6245C499.662 67.7299 491.53 72.1517 489.494 76.8192C487.195 82.1144 489.875 85.9084 491.635 86.427C497.126 88.0101 502.749 85.1578 505.77 80.4767C508.791 75.7956 508.424 69.6815 507.031 66.8974C507.018 66.8565 506.992 66.8292 506.979 66.7882C507.531 66.4471 508.096 66.1059 508.661 65.7647C509.75 65.0959 510.814 64.4818 511.747 63.9496C511.222 65.4235 510.841 67.1977 510.644 69.7634C510.407 72.7659 511.603 76.6554 513.153 78.1839C513.837 78.8526 514.663 78.8663 515.176 78.8663C516.989 78.8663 517.804 77.3105 518.709 75.4544C519.826 73.1889 520.812 70.555 520.812 70.555C520.812 70.555 519.576 77.679 522.953 77.679C524.187 77.679 525.422 76.0276 525.976 75.1815V75.1951C525.976 75.1951 526.002 75.1405 526.068 75.0313C526.199 74.8266 526.265 74.7038 526.265 74.7038V74.6629C526.764 73.7758 527.855 71.7423 529.496 68.385C531.625 64.0451 533.66 58.627 533.66 58.627C533.857 59.818 534.129 60.9943 534.475 62.1481C534.843 63.4446 535.618 64.8639 536.236 66.2423C535.736 66.952 535.434 67.3614 535.434 67.3614C535.435 67.3719 535.44 67.3816 535.447 67.3887C535.053 67.9346 534.606 68.5215 534.146 69.0947C532.466 71.1691 530.467 73.5438 530.204 74.2261C529.889 75.0313 529.968 75.6318 530.572 76.0958C531.019 76.4507 531.807 76.5053 532.634 76.437C534.145 76.3279 535.209 75.9457 535.722 75.7001C536.667 75.3482 537.56 74.8613 538.375 74.2534C540.017 72.9979 541.016 71.1964 540.924 68.8217C540.872 67.5116 540.464 66.2014 539.965 64.9731C540.109 64.7548 540.267 64.5228 540.412 64.2907C543.012 60.3466 545.023 56.0176 545.023 56.0176C545.219 57.2086 545.491 58.3849 545.837 59.5387C546.153 60.6441 546.769 61.8588 547.334 63.0461C544.891 65.1069 543.38 67.4952 542.854 69.0646C541.882 71.9716 542.644 73.2817 544.076 73.582C544.72 73.7184 545.64 73.4046 546.323 73.1043C547.338 72.7533 548.295 72.2423 549.16 71.5894C550.803 70.3339 552.392 68.5733 552.286 66.185C552.247 65.1069 551.958 64.0287 551.577 62.9915C553.64 62.0908 556.319 61.5995 559.736 62.0089C567.052 62.896 568.484 67.6453 568.209 69.6242C567.933 71.6031 566.395 72.7085 565.883 73.0361C565.37 73.3636 565.213 73.4864 565.252 73.7321C565.318 74.0869 565.554 74.0733 565.988 73.9914C566.592 73.8822 569.823 72.381 569.968 68.7098C570.178 64.0697 565.883 58.9655 558.273 59.0064L558.277 59.0092ZM501.882 78.7571C499.465 81.5003 496.075 82.5375 494.618 81.664C493.054 80.7196 493.672 76.6827 496.653 73.7594C498.467 71.9852 500.804 70.3475 502.355 69.3376C502.71 69.1192 503.222 68.7917 503.853 68.3959C503.958 68.3277 504.01 68.3004 504.01 68.3004C504.129 68.2185 504.26 68.1503 504.392 68.0684C505.481 72.2172 504.431 75.8748 501.882 78.7544V78.7571ZM519.537 66.2833C518.696 68.4259 516.923 73.8849 515.846 73.5983C514.926 73.3527 514.361 69.1902 515.662 65.0959C516.319 63.0352 517.712 60.5786 518.54 59.6233C519.865 58.0811 521.324 57.5898 521.666 58.204C522.126 59.0092 520.063 64.9458 519.537 66.2833ZM534.123 73.5165C533.768 73.7075 533.439 73.8304 533.282 73.7348C533.163 73.6666 533.426 73.4073 533.426 73.4073C533.426 73.4073 535.253 71.3738 535.975 70.4458C536.396 69.8999 536.882 69.2584 537.406 68.5488C537.406 68.617 537.42 68.6852 537.42 68.7671C537.402 71.21 535.144 72.8614 534.119 73.5165H534.123ZM545.368 70.8552C545.105 70.6641 545.145 70.0227 546.025 68.0302C546.367 67.2523 547.154 65.9421 548.522 64.6865C548.677 65.1618 548.761 65.6588 548.771 66.1605C548.758 69.2311 546.643 70.3775 545.369 70.8552H545.368Z" fill="#989898" fill-opacity="0.31"/>
</g>
<path d="M653.386 38.7239H641.317C635.229 37.0823 621.455 37.5095 621.455 50.4277C621.455 55.1364 623.738 58.4446 626.782 59.9735C622.962 63.5728 621.15 65.2707 621.15 67.6743C621.15 69.3957 621.831 70.9825 623.873 71.8698C621.701 73.9683 620.464 75.4925 620.464 78.3563C620.464 83.3811 624.733 86.309 635.933 86.309C646.702 86.309 652.949 82.1746 652.949 74.8572C652.949 65.6775 646.075 66.0155 629.869 64.9984L631.913 61.626C636.064 62.8122 649.981 63.1909 649.981 51.002C649.981 48.0757 648.804 46.0397 647.698 44.575L653.392 44.1306L653.386 38.7239ZM643.733 76.5786C643.733 81.5956 627.767 81.6019 627.767 76.9588C627.767 75.685 628.569 74.6115 629.376 73.588C641.204 74.4174 643.733 74.1154 643.733 76.5786ZM635.999 55.5183C627.962 55.5183 628.318 44.3825 636.181 44.3825C643.722 44.3825 643.917 55.5183 635.999 55.5183ZM656.289 71.247V66.2237C660.36 65.6509 660.435 65.9107 660.435 64.5023V45.8003C660.435 44.4701 660.123 44.6454 656.289 43.2558L656.969 38.1042H669.781V64.5054C669.781 65.5242 669.842 65.6509 670.772 65.7792L673.927 66.2237V71.247H656.289ZM664.272 33.0152C660.746 33.0152 658.703 30.9135 658.703 27.2861C658.703 23.6587 660.746 21.6885 664.272 21.6885C667.862 21.6885 669.904 23.6634 669.904 27.2861C669.904 30.9088 667.862 33.0152 664.272 33.0152ZM698.397 68.7807C695.735 70.1156 691.837 71.3252 688.308 71.3252C680.944 71.3252 678.16 68.2737 678.16 61.0815V44.4138C678.16 43.5656 678.32 43.7785 673.334 43.7785V38.1151C678.78 37.4782 680.944 34.6724 681.625 27.7446H687.505C687.505 38.0463 687.301 37.4172 688.001 37.4172H696.723V43.7785H687.505V58.9814C687.505 60.0643 686.756 67.0265 696.724 63.1815L698.397 68.7807Z" fill="#989898" fill-opacity="0.31"/>
<path d="M767.618 51.4258L740.182 23.2116C739.422 22.4314 738.392 21.9932 737.319 21.9932C736.245 21.9932 735.215 22.4314 734.456 23.2116L728.751 29.0722L735.98 36.5037C739.776 35.1853 743.371 38.9227 742.067 42.8043L749.035 49.9675C753.837 48.2654 757.619 54.4391 754.011 58.1447C750.295 61.9658 744.161 57.7308 746.154 52.7586L739.651 46.0816V63.6578C743.201 65.4666 742.775 69.6944 740.925 71.5912C740.022 72.5196 738.797 73.041 737.519 73.041C736.242 73.041 735.017 72.5196 734.114 71.5912C731.648 69.0525 732.56 64.8247 735.692 63.5135V45.7714C732.774 44.5439 732.241 41.3373 733.077 39.2804L725.951 31.9456L707.133 51.2946C706.374 52.0752 705.948 53.134 705.948 54.2379C705.948 55.3418 706.374 56.4005 707.133 57.1812L734.578 85.3955C735.337 86.1755 736.367 86.6137 737.44 86.6137C738.514 86.6137 739.543 86.1755 740.302 85.3955L767.618 57.3125C768.377 56.5318 768.804 55.4731 768.804 54.3691C768.804 53.2652 768.377 52.2065 767.618 51.4258V51.4258Z" fill="#989898" fill-opacity="0.31"/>
<g clip-path="url(#clip4_1623_223)">
<path d="M235.414 18.193C242.393 17.8885 249.387 18.2799 256.373 18.1567C264.081 17.903 271.781 18.1132 279.495 18.1422C285.614 18.1567 291.732 18.1132 297.85 18.164C295.925 40.1479 293.986 62.1319 292.201 84.1304C284.004 86.544 275.799 88.9215 267.602 91.3206C266.552 91.77 265.474 91.3496 264.466 91.067C256.674 88.7475 248.883 86.4498 241.077 84.2173C239.047 62.2261 237.136 40.2132 235.414 18.193M266.762 23.9263C266.475 34.7697 266.72 45.6131 266.636 56.4565C266.713 66.3721 266.496 76.295 266.748 86.2106C273.636 84.529 280.433 82.4633 287.231 80.4265C288.939 61.6028 290.605 42.7791 292.033 23.9336C283.612 23.8466 275.183 23.9481 266.762 23.9263M257.997 66.2707C253.951 65.1254 249.954 63.8063 245.852 62.9002C245.733 65.4226 245.775 67.945 246.055 70.4529C252.061 71.9678 257.941 73.9611 263.955 75.447C263.997 61.0882 263.934 46.7221 263.983 32.3633C262.022 32.3126 260.062 32.2836 258.102 32.2401C257.878 43.5764 258.088 54.9271 257.997 66.2707V66.2707Z" fill="#989898" fill-opacity="0.31"/>
<path d="M266.762 23.9263C275.183 23.948 283.612 23.8466 292.033 23.9335C290.605 42.779 288.939 61.6028 287.231 80.4265C280.433 82.4633 273.636 84.529 266.748 86.2106C266.496 76.295 266.713 66.3721 266.636 56.4565C266.72 45.6131 266.475 34.7697 266.762 23.9263M269.121 32.356C269.149 41.6918 269.156 51.0348 269.121 60.3706C273.237 59.682 277.339 58.8919 281.441 58.1163C281.378 60.2908 281.294 62.4653 281.203 64.6398C277.206 65.7415 273.216 66.8795 269.198 67.9015C269.135 70.4094 269.128 72.9173 269.149 75.4324C274.21 74.2582 279.194 72.7796 284.221 71.4676C284.851 71.1632 286.062 71.1995 286.006 70.1775C286.615 63.4656 286.993 56.7247 287.581 49.9983C283.416 50.3535 279.292 51.0783 275.127 51.3755C275.092 47.5629 275.085 43.7503 275.141 39.9377C279.523 39.9377 283.899 39.9377 288.281 39.945C288.561 37.4008 288.806 34.8494 288.995 32.298C282.373 32.327 275.743 32.2328 269.121 32.356Z" fill="#989898" fill-opacity="0.31"/>
</g>
<path d="M858.09 52.2725H852.171V42.3686H859.193C863.011 42.3686 865.178 44.0703 865.178 47.1478C865.178 50.4338 862.656 52.2725 858.084 52.2725H858.09ZM859.148 56.204H852.174V67.1185H859.454C864.215 67.1185 866.738 65.2114 866.738 61.6254C866.738 58.0394 864.144 56.204 859.148 56.204ZM898 52.7615V56.7321C894.319 57.0842 892.071 59.8096 890.736 64.1258C889.408 68.4257 889.225 73.7004 889.365 77.7721C889.512 82.0101 886.207 85.9221 881.739 85.9221H835.949C831.478 85.9221 828.173 82.0101 828.323 77.7721C828.463 73.7004 828.28 68.4257 826.952 64.1258C825.614 59.8096 823.363 57.0842 819.682 56.7321V52.7615C823.363 52.4094 825.618 49.684 826.949 45.3678C828.28 41.0679 828.463 35.7932 828.32 31.7215C828.173 27.4835 831.478 23.5715 835.949 23.5715H881.739C886.21 23.5715 889.512 27.4835 889.365 31.7215C889.225 35.7932 889.408 41.0679 890.736 45.3678C892.071 49.684 894.319 52.4094 898 52.7615ZM872.132 61.9449C872.132 57.5308 869.022 54.3393 864.405 53.834V53.6482C867.798 53.0973 870.461 49.9481 870.461 46.4338C870.461 41.4232 866.503 38.16 860.469 38.16H846.894V71.3206H860.538C867.776 71.3206 872.132 67.7802 872.132 61.9449Z" fill="#989898" fill-opacity="0.31"/>
<defs>
<clipPath id="clip0_1623_223">
<rect width="77.2957" height="69.8753" fill="white" transform="translate(358.135 19.1694)"/>
</clipPath>
<clipPath id="clip1_1623_223">
<rect width="63.0733" height="84.0977" fill="white" transform="translate(0 12.166)"/>
</clipPath>
<clipPath id="clip2_1623_223">
<rect width="61.2182" height="84.0977" fill="white" transform="translate(114.056 12.3672)"/>
</clipPath>
<clipPath id="clip3_1623_223">
<rect width="84.0977" height="69.8753" fill="white" transform="translate(485.878 19.1694)"/>
</clipPath>
<clipPath id="clip4_1623_223">
<rect width="81.6242" height="91.5181" fill="white" transform="translate(225.831)"/>
</clipPath>
</defs>
</svg>
